<?xml version="1.0" standalone="no"?>
<!DOCTYPE svg PUBLIC "-//W3C//DTD SVG 20010904//EN"
 "http://www.w3.org/TR/2001/REC-SVG-20010904/DTD/svg10.dtd">
<svg version="1.0" xmlns="http://www.w3.org/2000/svg"
 width="500.000000pt" height="500.000000pt" viewBox="0 0 500.000000 500.000000"
 preserveAspectRatio="xMidYMid meet">

<g transform="translate(0.000000,500.000000) scale(0.100000,-0.100000)"
fill="#000000" stroke="none">
<path d="M0 2500 l0 -2500 2500 0 2500 0 0 2500 0 2500 -2500 0 -2500 0 0
-2500z m2645 1418 c-11 -30 -8 -195 2 -184 10 10 33 124 33 162 l0 46 33 -7
c53 -12 77 -24 77 -38 0 -18 -163 -423 -174 -435 -10 -9 -20 7 -69 103 -51
101 -88 239 -82 305 7 62 15 67 124 69 62 1 63 0 56 -21z m-289 -160 c122
-150 233 -301 228 -309 -2 -4 -51 -6 -107 -3 -119 6 -252 42 -312 83 -34 24
-40 32 -37 60 2 30 32 100 54 128 7 9 17 3 39 -21 18 -21 46 -38 74 -46 25 -7
48 -17 51 -21 3 -5 10 -9 16 -9 14 0 -87 96 -124 118 l-28 16 37 38 c20 21 40
38 44 38 4 0 33 -33 65 -72z m636 5 c29 -32 78 -104 78 -115 0 -5 -15 -8 -33
-8 -25 0 -49 -12 -93 -46 -32 -26 -50 -44 -39 -41 11 3 40 11 65 17 25 7 61
20 81 30 l35 18 12 -44 c18 -68 17 -71 -35 -78 -275 -38 -419 -56 -429 -54 -8
2 10 39 47 98 77 123 213 247 275 250 5 0 22 -12 36 -27z m-418 -365 c-82
-160 -261 -333 -323 -313 -19 6 -69 63 -90 103 -15 29 -7 42 28 42 15 0 39 9
52 21 13 12 38 32 54 46 17 14 22 23 13 20 -9 -3 -36 -11 -60 -17 -24 -7 -60
-21 -80 -31 l-37 -19 -16 52 c-10 34 -12 54 -5 58 15 9 388 65 458 69 22 1 22
1 6 -31z m100 -107 c39 -77 76 -210 75 -268 -1 -49 -11 -84 -24 -85 -5 0 -14
-2 -20 -4 -5 -2 -42 -4 -81 -6 l-71 -3 18 41 c15 32 16 48 9 75 -6 19 -10 47
-11 64 -1 47 -39 -80 -39 -132 0 -24 -4 -43 -9 -43 -5 0 -31 7 -58 16 l-50 16
47 116 c26 65 64 158 85 207 20 50 41 101 47 114 l9 25 19 -32 c11 -18 35 -63
54 -101z m261 99 c52 -17 108 -43 126 -57 27 -23 30 -31 26 -60 -3 -19 -19
-56 -36 -83 -16 -26 -29 -50 -28 -52 1 -2 -5 6 -13 16 -25 34 -45 47 -105 72
l-59 23 54 -54 c29 -30 66 -59 81 -65 l28 -12 -35 -37 c-19 -21 -41 -38 -50
-38 -12 0 -123 136 -297 365 -7 9 14 12 102 12 96 0 123 -4 206 -30z m228
-897 c-309 -2 -817 -2 -1130 0 -312 1 -59 2 562 2 622 0 877 -1 568 -2z m-844
-329 c95 -40 141 -130 141 -278 0 -196 -81 -302 -239 -314 -123 -8 -213 42
-259 147 -24 52 -23 261 1 313 22 48 72 105 109 124 68 35 174 39 247 8z
m-744 -246 l175 -263 0 263 0 262 25 0 25 0 0 -305 0 -305 -27 0 c-25 1 -45
27 -203 263 l-175 262 -3 -262 -2 -263 -23 0 -22 0 -2 305 -1 305 29 0 c27 0
42 -19 204 -262z m1335 237 l0 -25 -130 0 -130 0 0 -115 0 -115 110 0 c61 0
110 -3 110 -7 -1 -26 -22 -32 -115 -35 l-100 -3 -3 -142 -3 -143 -24 0 -25 0
0 305 0 305 155 0 155 0 0 -25z m408 3 c-3 -22 -7 -23 -130 -26 l-128 -3 0
-114 0 -115 105 0 c98 0 105 -1 105 -20 0 -19 -7 -20 -105 -20 l-105 0 0 -145
0 -145 -25 0 -25 0 0 305 0 305 156 0 155 0 -3 -22z m155 -140 c59 -121 80
-157 90 -149 6 5 48 78 92 160 74 139 82 150 108 151 l28 0 -42 -77 c-23 -43
-71 -129 -106 -192 l-63 -113 0 -114 0 -114 -25 0 -25 0 0 110 0 110 -95 190
c-52 104 -95 192 -95 195 0 3 12 5 28 4 25 0 33 -12 105 -161z m432 -32 c-10
-87 -16 -106 -31 -106 -11 0 -14 17 -14 79 0 68 3 80 18 84 29 6 34 -3 27 -57z
m-1707 -767 c21 -7 32 -17 32 -29 0 -28 -13 -31 -60 -15 -109 39 -200 -6 -200
-98 0 -49 25 -72 146 -136 101 -53 134 -91 134 -153 0 -128 -144 -202 -295
-150 -50 17 -64 35 -51 68 5 13 10 13 32 -5 14 -11 50 -25 79 -32 47 -10 60
-10 100 6 51 19 85 62 85 107 0 42 -43 82 -139 132 -140 72 -175 133 -129 224
44 88 144 118 266 81z m440 0 c21 -7 32 -17 32 -29 0 -28 -13 -31 -60 -15
-109 39 -200 -6 -200 -98 0 -49 25 -72 146 -136 101 -53 134 -91 134 -153 0
-128 -144 -202 -295 -150 -50 17 -64 35 -51 68 5 13 10 13 32 -5 14 -11 50
-25 79 -32 47 -10 60 -10 100 6 51 19 85 62 85 107 0 42 -43 82 -139 132 -140
72 -175 133 -129 224 44 88 144 118 266 81z m521 -5 c95 -40 141 -130 141
-278 0 -196 -81 -302 -239 -314 -123 -8 -213 42 -259 147 -24 52 -23 261 1
313 22 48 72 105 109 124 68 35 174 39 247 8z"/>
<path d="M2102 2119 c-81 -40 -119 -138 -109 -275 9 -125 59 -202 143 -223
109 -28 197 9 247 103 19 35 22 57 22 156 0 121 -14 169 -62 212 -56 51 -168
63 -241 27z"/>
<path d="M2942 1169 c-81 -40 -119 -138 -109 -275 9 -125 59 -202 143 -223
109 -28 197 9 247 103 19 35 22 57 22 156 0 121 -14 169 -62 212 -56 51 -168
63 -241 27z"/>
</g>
</svg>
